HIERARCHY
ROOT joint_Root
{
  OFFSET 0 0 0
  CHANNELS 6 Xposition Yposition Zposition Zrotation Xrotation Yrotation
  JOINT Hips
  {
    OFFSET 0.847027 93.984 -452.225
    CHANNELS 6 Xposition Yposition Zposition Zrotation Xrotation Yrotation
    JOINT Spine
    {
      OFFSET 15.7357 0 0
      CHANNELS 6 Xposition Yposition Zposition Zrotation Xrotation Yrotation
      JOINT Chest
      {
        OFFSET 8.98455 -0.406207 0
        CHANNELS 6 Xposition Yposition Zposition Zrotation Xrotation Yrotation
        JOINT Neck
        {
          OFFSET 16.3773 0 0
          CHANNELS 6 Xposition Yposition Zposition Zrotation Xrotation Yrotation
          JOINT Head
          {
            OFFSET 6.45672 0 0
            CHANNELS 6 Xposition Yposition Zposition Zrotation Xrotation Yrotation
            End Site
            {
              OFFSET 0 0 0
            }
          }
        }
        JOINT Shoulder_L
        {
          OFFSET 12.9942 -0.242716 4.98039
          CHANNELS 6 Xposition Yposition Zposition Zrotation Xrotation Yrotation
          JOINT UpperArm_L
          {
            OFFSET 5.34809 0 0
            CHANNELS 6 Xposition Yposition Zposition Zrotation Xrotation Yrotation
            JOINT LowerArm_L
            {
              OFFSET 24.3286 1.87007e-05 0
              CHANNELS 6 Xposition Yposition Zposition Zrotation Xrotation Yrotation
              JOINT Hand_L
              {
                OFFSET 22.2916 0 0
                CHANNELS 6 Xposition Yposition Zposition Zrotation Xrotation Yrotation
                End Site
                {
                  OFFSET 0 0 0
                }
              }
            }
          }
        }
        JOINT Shoulder_R
        {
          OFFSET 12.9945 -0.242716 -4.98039
          CHANNELS 6 Xposition Yposition Zposition Zrotation Xrotation Yrotation
          JOINT UpperArm_R
          {
            OFFSET -5.34813 0 0
            CHANNELS 6 Xposition Yposition Zposition Zrotation Xrotation Yrotation
            JOINT LowerArm_R
            {
              OFFSET -24.3289 0.000322201 0
              CHANNELS 6 Xposition Yposition Zposition Zrotation Xrotation Yrotation
              JOINT Hand_R
              {
                OFFSET -22.2915 -0.000108084 0
                CHANNELS 6 Xposition Yposition Zposition Zrotation Xrotation Yrotation
                End Site
                {
                  OFFSET 0 0 0
                }
              }
            }
          }
        }
      }
    }
    JOINT UpperLeg_L
    {
      OFFSET -2.19248 -6.46944 0
      CHANNELS 6 Xposition Yposition Zposition Zrotation Xrotation Yrotation
      JOINT LowerLeg_L
      {
        OFFSET 39.0811 0 -1.23785e-05
        CHANNELS 6 Xposition Yposition Zposition Zrotation Xrotation Yrotation
        JOINT Foot_L
        {
          OFFSET 40.9854 0 -1.26872e-05
          CHANNELS 6 Xposition Yposition Zposition Zrotation Xrotation Yrotation
          JOINT Toes_L
          {
            OFFSET 11.7543 0 0
            CHANNELS 6 Xposition Yposition Zposition Zrotation Xrotation Yrotation
            End Site
            {
              OFFSET 0 0 0
            }
          }
        }
      }
    }
    JOINT UpperLeg_R
    {
      OFFSET -2.19251 6.46944 0
      CHANNELS 6 Xposition Yposition Zposition Zrotation Xrotation Yrotation
      JOINT LowerLeg_R
      {
        OFFSET -39.0811 -0.00228153 -0.0401928
        CHANNELS 6 Xposition Yposition Zposition Zrotation Xrotation Yrotation
        JOINT Foot_R
        {
          OFFSET -40.9854 0 0
          CHANNELS 6 Xposition Yposition Zposition Zrotation Xrotation Yrotation
          JOINT Toes_R
          {
            OFFSET -11.7543 0 0
            CHANNELS 6 Xposition Yposition Zposition Zrotation Xrotation Yrotation
            End Site
            {
              OFFSET 0 0 0
            }
          }
        }
      }
    }
  }
}
MOTION
Frames:	4
Frame Time:	0.0333333
0 0 0 0 0 -0 0.13427 79.0792 -9.14268 96.0957 -0.646597 2.07979 15.7357 5.1072e-06 -5.51765e-07 89.9046 78.1718 -89.4148 8.98455 -0.406207 -4.3199e-07 15.8906 -0.00423944 0.981057 16.3773 -1.3905e-06 -6.99897e-07 4.19479 -2.46239 0.763291 6.45672 -1.25837e-06 -1.02172e-07 -13.7431 -1.62843 -1.37066 12.9942 -0.242716 4.98039 -91.4045 4.40637 -87.3026 5.34809 -7.22636e-06 -6.2814e-07 -72.3539 10.1016 15.5913 24.3286 1.87007e-05 4.90208e-06 -3.49475 -8.62263 -22.1398 22.2916 -9.88446e-07 4.63217e-06 15.458 5.65718 -15.7179 12.9945 -0.242716 -4.98039 87.4877 12.9147 -93.8965 -5.34813 -1.25947e-06 -3.79883e-06 -42.4532 -14.796 -19.6832 -24.3289 0.000322201 -8.65921e-06 -16.4176 1.29801 -94.4095 -22.2915 -0.000108084 -4.47941e-06 33.2321 5.65202 -15.2286 -2.19248 -6.46944 -1.22534e-07 -171.036 -29.9436 -57.9748 39.0811 -6.73843e-06 -1.23785e-05 2.20061 1.52179 124.824 40.9854 -6.48686e-06 -1.26872e-05 4.24225 0.0742596 -20.626 11.7543 -2.30145e-07 3.05095e-06 0.143238 -0.239415 -20.7704 -2.19251 6.46944 -1.45247e-06 172.443 32.3563 148.022 -39.0811 -0.00228153 -0.0401928 0.161644 -0.016992 72.7337 -40.9854 7.72618e-06 5.99936e-06 -0.251985 -6.26385 -88.5779 -11.7543 -5.6619e-06 -5.58687e-06 0.10738 -0.121892 -17.7684 
0 0 0 0 0 -0 0.753888 80.2432 0.822029 96.0739 -5.68107 0.641335 15.7357 5.1072e-06 -5.51765e-07 101.116 78.575 -101.318 8.98455 -0.406207 -4.3199e-07 14.6932 4.33792 -0.963967 16.3773 -1.3905e-06 -6.99897e-07 4.41772 -1.68814 1.41237 6.45672 -1.25837e-06 -1.02172e-07 -13.4289 -4.06702 -2.12513 12.9942 -0.242716 4.98039 -91.4707 3.70205 -83.3036 5.34809 -7.22636e-06 -6.2814e-07 -74.8068 15.3105 29.2759 24.3286 1.87007e-05 4.90208e-06 -2.20918 -4.54915 -25.8278 22.2916 -9.88446e-07 4.63217e-06 14.8388 5.66916 -17.2876 12.9945 -0.242716 -4.98039 88.8079 7.97449 -96.4796 -5.34813 -1.25947e-06 -3.79883e-06 -50.8792 -26.466 -41.0421 -24.3289 0.000322201 -8.65921e-06 -11.4949 2.53617 -102.292 -22.2915 -0.000108084 -4.47941e-06 30.7401 5.65012 -15.0451 -2.19248 -6.46944 -1.22534e-07 179.215 -33.6543 -67.4411 39.0811 -6.73843e-06 -1.23785e-05 1.42509 0.672082 116.093 40.9854 -6.48686e-06 -1.26872e-05 -0.358974 0.589848 -27.89 11.7543 -2.30145e-07 3.05095e-06 0.137071 -0.228257 -20.5788 -2.19251 6.46944 -1.45247e-06 167.898 29.6646 157.508 -39.0811 -0.00228153 -0.0401928 0.32471 -0.100061 67.3938 -40.9854 7.72618e-06 5.99936e-06 -2.60561 -2.05269 -91.9038 -11.7543 -5.6619e-06 -5.58687e-06 0.155522 -0.178263 -18.3137 
0 0 0 0 0 -0 0.947325 82.5494 11.0892 95.5619 -8.00349 -1.18038 15.7357 5.1072e-06 -5.51765e-07 112.981 78.8698 -113.884 8.98455 -0.406207 -4.3199e-07 12.9012 8.56523 -2.77995 16.3773 -1.3905e-06 -6.99897e-07 5.00447 -1.79781 2.31829 6.45672 -1.25837e-06 -1.02172e-07 -13.0612 -7.07489 -2.04738 12.9942 -0.242716 4.98039 -90.2451 0.565716 -81.5587 5.34809 -7.22636e-06 -6.2814e-07 -76.5212 15.3487 39.9325 24.3286 1.87007e-05 4.90208e-06 -8.30558 -12.7433 -33.4899 22.2916 -9.88446e-07 4.63217e-06 12.4215 5.66995 -17.3853 12.9945 -0.242716 -4.98039 89.5969 3.03817 -97.4402 -5.34813 -1.25947e-06 -3.79883e-06 -60.6473 -34.3042 -57.8485 -24.3289 0.000322201 -8.65921e-06 -13.6029 4.75086 -108.87 -22.2915 -0.000108084 -4.47941e-06 32.5991 5.64163 -14.2813 -2.19248 -6.46944 -1.22534e-07 173.371 -32.3979 -71.4582 39.0811 -6.73843e-06 -1.23785e-05 0.730542 0.115902 100.848 40.9854 -6.48686e-06 -1.26872e-05 -2.07667 0.845157 -33.9132 11.7543 -2.30145e-07 3.05095e-06 0.138413 -0.230668 -20.6202 -2.19251 6.46944 -1.45247e-06 164.623 26.2284 167.983 -39.0811 -0.00228153 -0.0401928 0.202826 -0.0929082 57.0564 -40.9854 7.72618e-06 5.99936e-06 -6.76428 -0.198938 -86.8174 -11.7543 -5.6619e-06 -5.58687e-06 -0.00425747 -0.95885 -21.9268 
0 0 0 0 0 -0 0.755456 85.3413 21.4738 95.496 -6.89583 -3.39044 15.7357 5.1072e-06 -5.51765e-07 120.073 79.6616 -122.002 8.98455 -0.406207 -4.3199e-07 10.4273 10.2481 -4.80056 16.3773 -1.3905e-06 -6.99897e-07 6.20992 -2.64688 3.4286 6.45672 -1.25837e-06 -1.02172e-07 -12.7058 -9.63386 -0.877257 12.9942 -0.242716 4.98039 -88.1434 -4.29782 -81.6041 5.34809 -7.22636e-06 -6.2814e-07 -74.9438 7.93527 46.8172 24.3286 1.87007e-05 4.90208e-06 -7.73469 -9.45656 -39.5891 22.2916 -9.88446e-07 4.63217e-06 13.664 5.67058 -17.4912 12.9945 -0.242716 -4.98039 90.0601 -0.418667 -96.861 -5.34813 -1.25947e-06 -3.79883e-06 -64.857 -37.6015 -65.7876 -24.3289 0.000322201 -8.65921e-06 -19.4999 8.33154 -112.251 -22.2915 -0.000108084 -4.47941e-06 35.7382 5.6429 -14.378 -2.19248 -6.46944 -1.22534e-07 170.723 -27.4872 -69.6473 39.0811 -6.73843e-06 -1.23785e-05 0.282881 -0.0717021 79.8901 40.9854 -6.48686e-06 -1.26872e-05 -2.95703 0.281908 -37.6556 11.7543 -2.30145e-07 3.05095e-06 0.134157 -0.222999 -20.4884 -2.19251 6.46944 -1.45247e-06 162.714 23.5441 176.329 -39.0811 -0.00228153 -0.0401928 0.172057 -0.111519 47.3603 -40.9854 7.72618e-06 5.99936e-06 -8.91144 -3.10188 -72.935 -11.7543 -5.6619e-06 -5.58687e-06 1.10482 -1.58663 -30.8163 
